<svg viewBox="0 0 32 32" fill="none" xmlns="http://www.w3.org/2000/svg">
<rect width="32" height="32" rx="5" fill="#003F5A"/>
<path d="M24.9891 8H28V22H24.9891V16H20.0109V22H17V8H20.0109V13H24.9891V8Z" fill="white"/>
<path d="M9.66882 22C8.75121 22 7.88853 21.82 7.08078 21.4601C6.27302 21.0937 5.5622 20.5891 4.9483 19.9463C4.34087 19.3035 3.86268 18.5611 3.51373 17.719C3.17124 16.8705 3 15.9642 3 15C3 14.0294 3.17124 13.123 3.51373 12.281C3.86268 11.4325 4.34087 10.6901 4.9483 10.0537C5.5622 9.41093 6.27302 8.90955 7.08078 8.54959C7.88853 8.1832 8.75121 8 9.66882 8C10.7674 8 11.7787 8.2539 12.7027 8.76171C13.6268 9.26309 14.3926 9.9348 15 10.7769L12.4023 12.1653C12.0662 11.7796 11.6624 11.4711 11.1906 11.2397C10.7189 11.0083 10.2116 10.8926 9.66882 10.8926C9.15186 10.8926 8.66397 10.9986 8.20517 11.2107C7.75283 11.4229 7.35218 11.7185 7.00323 12.0978C6.66074 12.4706 6.39257 12.9045 6.19871 13.3994C6.00485 13.8944 5.90792 14.4279 5.90792 15C5.90792 15.5657 6.00485 16.096 6.19871 16.5909C6.39257 17.0859 6.66074 17.523 7.00323 17.9022C7.35218 18.275 7.75283 18.5707 8.20517 18.7893C8.66397 19.0014 9.15186 19.1074 9.66882 19.1074C10.2116 19.1074 10.7189 18.9917 11.1906 18.7603C11.6624 18.5225 12.0662 18.2075 12.4023 17.8154L15 19.2231C14.3926 20.0588 13.6268 20.7305 12.7027 21.2383C11.7787 21.7461 10.7674 22 9.66882 22Z" fill="white"/>
<rect x="3" y="25" width="26" height="2" rx="1" fill="white"/>
</svg>
